<svg width="192" height="192" viewBox="0 0 192 192" xmlns="http://www.w3.org/2000/svg">
  <!-- Background arrotondato -->
  <rect width="192" height="192" rx="43" fill="#FF6B35"/>
  
  <!-- Piatto bianco -->
  <circle cx="96" cy="106" r="55" fill="#FFFFFF"/>
  <circle cx="96" cy="106" r="48" fill="#FFF9E6"/>
  
  <!-- Forchetta -->
  <g transform="translate(67, 48)">
    <rect x="6.5" y="0" width="3" height="67" rx="1.5" fill="#FFFFFF"/>
    <rect x="3" y="0" width="3" height="37" rx="1.5" fill="#FFFFFF"/>
    <rect x="10" y="0" width="3" height="37" rx="1.5" fill="#FFFFFF"/>
  </g>
  
  <!-- Coltello -->
  <g transform="translate(112, 48)">
    <rect x="0" y="0" width="3" height="67" rx="1.5" fill="#FFFFFF"/>
    <path d="M 0 0 L 3 0 L 3 15 L 7.5 18.5 L 7.5 22 L 3 26 L 3 30 L 0 30 Z" fill="#FFFFFF"/>
  </g>
  
  <!-- Elementi decorativi sul piatto -->
  <circle cx="90" cy="96" r="5.5" fill="#FF6B35"/>
  <circle cx="102" cy="96" r="5.5" fill="#FFB300"/>
  <circle cx="96" cy="112" r="5.5" fill="#4CAF50"/>
</svg>
