<svg width="512" height="512" viewBox="0 0 512 512" xmlns="http://www.w3.org/2000/svg">
  <!-- Background arrotondato -->
  <rect width="512" height="512" rx="115" fill="#FF6B35"/>
  
  <!-- Piatto bianco -->
  <circle cx="256" cy="282" r="146" fill="#FFFFFF"/>
  <circle cx="256" cy="282" r="128" fill="#FFF9E6"/>
  
  <!-- Forchetta -->
  <g transform="translate(179, 128)">
    <rect x="17" y="0" width="8" height="178" rx="4" fill="#FFFFFF"/>
    <rect x="8" y="0" width="8" height="98" rx="4" fill="#FFFFFF"/>
    <rect x="26" y="0" width="8" height="98" rx="4" fill="#FFFFFF"/>
  </g>
  
  <!-- Coltello -->
  <g transform="translate(298, 128)">
    <rect x="0" y="0" width="8" height="178" rx="4" fill="#FFFFFF"/>
    <path d="M 0 0 L 8 0 L 8 40 L 20 49 L 20 59 L 8 69 L 8 80 L 0 80 Z" fill="#FFFFFF"/>
  </g>
  
  <!-- Elementi decorativi sul piatto -->
  <circle cx="240" cy="256" r="15" fill="#FF6B35"/>
  <circle cx="272" cy="256" r="15" fill="#FFB300"/>
  <circle cx="256" cy="298" r="15" fill="#4CAF50"/>
</svg>
